<?xml version="1.0" encoding="utf-8"?>
<!-- Generator: Adobe Illustrator 16.0.0, SVG Export Plug-In . SVG Version: 6.00 Build 0)  -->
<!DOCTYPE svg PUBLIC "-//W3C//DTD SVG 1.1//EN" "http://www.w3.org/Graphics/SVG/1.1/DTD/svg11.dtd">
<svg version="1.1" id="Layer_1" xmlns="http://www.w3.org/2000/svg" xmlns:xlink="http://www.w3.org/1999/xlink" x="0px" y="0px"
	 width="64px" height="16px" viewBox="0 0 64 16" enable-background="new 0 0 64 16" xml:space="preserve">
<g transform="translate(0, 0)">
	<polygon fill="#B2B4B7" points="8,12.6 0.3,4.9 1.7,3.4 8,9.7 14.3,3.4 15.7,4.9 	"/>
</g>
<g>
	<path fill="#6C7079" d="M29.373,5.545l-5.069-5.069c-0.281-0.188-0.657-0.375-1.032-0.375h-3.379c-1.314,0-2.347,1.033-2.347,2.347
		v11.264c0,1.314,1.033,2.347,2.347,2.347h7.509c1.314,0,2.346-1.032,2.346-2.347V6.578C29.748,6.203,29.654,5.827,29.373,5.545z
		 M24.116,1.603l4.13,4.13h-2.722c-0.751,0-1.408-0.658-1.408-1.409V1.603z M27.401,15.12h-7.509c-0.751,0-1.408-0.657-1.408-1.408
		V2.448c0-0.751,0.657-1.408,1.408-1.408h3.286v3.285c0,1.314,1.032,2.347,2.347,2.347h3.285v7.04
		C28.81,14.463,28.152,15.12,27.401,15.12z"/>
	<path fill="#6C7079" d="M25.994,10.238c0,0.207-0.167,0.374-0.374,0.374h-3.946c-0.207,0-0.374-0.167-0.374-0.374v-0.187
		c0-0.207,0.167-0.374,0.374-0.374h3.946c0.207,0,0.374,0.167,0.374,0.374V10.238z"/>
	<path fill="#6C7079" d="M23.554,12.492c-0.207,0-0.375-0.167-0.375-0.374V8.172c0-0.207,0.167-0.374,0.375-0.374h0.187
		c0.207,0,0.375,0.167,0.375,0.374v3.946c0,0.207-0.168,0.374-0.375,0.374H23.554z"/>
</g>
<path fill="#6C7079" d="M45.006,5.545l-5.069-5.069c-0.281-0.188-0.657-0.375-1.032-0.375h-3.379c-1.314,0-2.348,1.033-2.348,2.347
	v11.264c0,1.314,1.033,2.347,2.348,2.347h7.509c1.314,0,2.347-1.032,2.347-2.347V6.578C45.381,6.203,45.287,5.827,45.006,5.545z
	 M39.749,1.603l4.13,4.13h-2.722c-0.751,0-1.408-0.658-1.408-1.409V1.603z M43.034,15.12h-7.509c-0.752,0-1.408-0.657-1.408-1.408
	V2.448c0-0.751,0.656-1.408,1.408-1.408h3.285v3.285c0,1.314,1.032,2.347,2.347,2.347h3.285v7.04
	C44.442,14.463,43.785,15.12,43.034,15.12z"/>
<path fill="#6C7079" d="M41.627,10.238c0,0.207-0.168,0.374-0.375,0.374h-3.945c-0.207,0-0.374-0.167-0.374-0.374v-0.187
	c0-0.207,0.167-0.374,0.374-0.374h3.945c0.207,0,0.375,0.167,0.375,0.374V10.238z"/>
<g>
	<g>
		<g>
			<path fill="#6C7079" d="M62.475,2.398l-2.402-2.401c-0.048-0.049-0.113-0.079-0.188-0.079h-8.272
				c-0.735,0-1.334,0.599-1.334,1.334v13.342c0,0.736,0.599,1.335,1.334,1.335h9.607c0.735,0,1.334-0.599,1.334-1.335V2.588
				C62.553,2.514,62.523,2.447,62.475,2.398z M60.151,0.83l1.49,1.491h-1.49V0.83z M62.02,14.596c0,0.442-0.359,0.801-0.801,0.801
				h-9.607c-0.441,0-0.801-0.358-0.801-0.801V1.253c0-0.441,0.359-0.801,0.801-0.801h8.006v2.135c0,0.147,0.119,0.267,0.267,0.267
				h2.136V14.596z"/>
		</g>
	</g>
	<g>
		<g>
			<path fill="#6C7079" d="M52.679,3.655c-0.589,0-1.067,0.479-1.067,1.067c0,0.589,0.479,1.068,1.067,1.068
				c0.59,0,1.068-0.479,1.068-1.068C53.747,4.134,53.269,3.655,52.679,3.655z M52.679,5.256c-0.294,0-0.533-0.24-0.533-0.534
				c0-0.294,0.239-0.534,0.533-0.534c0.295,0,0.534,0.24,0.534,0.534C53.213,5.017,52.974,5.256,52.679,5.256z"/>
		</g>
	</g>
	<g>
		<g>
			<path fill="#6C7079" d="M52.679,6.59c-0.589,0-1.067,0.479-1.067,1.068c0,0.588,0.479,1.066,1.067,1.066
				c0.59,0,1.068-0.478,1.068-1.066C53.747,7.069,53.269,6.59,52.679,6.59z M52.679,8.191c-0.294,0-0.533-0.239-0.533-0.533
				c0-0.294,0.239-0.534,0.533-0.534c0.295,0,0.534,0.239,0.534,0.534C53.213,7.952,52.974,8.191,52.679,8.191z"/>
		</g>
	</g>
	<g>
		<g>
			<path fill="#6C7079" d="M52.679,9.525c-0.589,0-1.067,0.479-1.067,1.067c0,0.589,0.479,1.068,1.067,1.068
				c0.59,0,1.068-0.479,1.068-1.068C53.747,10.005,53.269,9.525,52.679,9.525z M52.679,11.127c-0.294,0-0.533-0.239-0.533-0.534
				c0-0.294,0.239-0.532,0.533-0.532c0.295,0,0.534,0.238,0.534,0.532C53.213,10.888,52.974,11.127,52.679,11.127z"/>
		</g>
	</g>
	<g>
		<g>
			<path fill="#6C7079" d="M52.679,12.461c-0.589,0-1.067,0.479-1.067,1.068c0,0.589,0.479,1.066,1.067,1.066
				c0.59,0,1.068-0.478,1.068-1.066C53.747,12.939,53.269,12.461,52.679,12.461z M52.679,14.063c-0.294,0-0.533-0.239-0.533-0.533
				c0-0.295,0.239-0.534,0.533-0.534c0.295,0,0.534,0.239,0.534,0.534C53.213,13.823,52.974,14.063,52.679,14.063z"/>
		</g>
	</g>
	<g>
		<g>
			<rect x="54.279" y="4.989" fill="#6C7079" width="6.939" height="0.534"/>
		</g>
	</g>
	<g>
		<g>
			<rect x="54.547" y="1.253" fill="#6C7079" width="3.736" height="0.534"/>
		</g>
	</g>
	<g>
		<g>
			<rect x="53.747" y="2.321" fill="#6C7079" width="5.336" height="0.534"/>
		</g>
	</g>
	<g>
		<g>
			<rect x="54.279" y="7.925" fill="#6C7079" width="6.939" height="0.534"/>
		</g>
	</g>
	<g>
		<g>
			<rect x="54.279" y="10.861" fill="#6C7079" width="6.939" height="0.532"/>
		</g>
	</g>
	<g>
		<g>
			<rect x="54.279" y="13.796" fill="#6C7079" width="6.939" height="0.533"/>
		</g>
	</g>
	<g>
		<g>
			<rect x="56.415" y="3.922" fill="#6C7079" width="0.534" height="0.534"/>
		</g>
	</g>
	<g>
		<g>
			<rect x="55.348" y="3.922" fill="#6C7079" width="0.534" height="0.534"/>
		</g>
	</g>
	<g>
		<g>
			<rect x="54.279" y="3.922" fill="#6C7079" width="0.535" height="0.534"/>
		</g>
	</g>
</g>
</svg>
